# xmcd
#
# Track frame offsets:
#	150
#	20111
#	36466
#
# Disc length: 750 seconds
#
# Revision: 0
# Processed by: cddbd v1.5.2PL0 Copyright (c) Steve Scherf et al.
# Submitted via: audiograbber 1.83.01
#
DISCID=2402ec03
DTITLE=reno - renos
DYEAR=1900
DGENRE=
TTITLE0=Pista  electricidad
TTITLE1=Pista  electricidad 2
TTITLE2=Pista   kevengan los bom,beros
EXTD=
EXTT0=
EXTT1=
EXTT2=
PLAYORDER=
